HIERARCHY
ROOT Hips
{
	OFFSET 0.000000 0.000000 0.000000 
	CHANNELS 6 Xposition Yposition Zposition Zrotation Yrotation Xrotation
	JOINT LeftUpLeg
	{
		OFFSET 1.363060 -1.794630 0.839290 
		CHANNELS 3 Zrotation Yrotation Xrotation
		JOINT LeftLeg
		{
			OFFSET 2.448110 -6.726130 0.000000 
			CHANNELS 3 Zrotation Yrotation Xrotation
			JOINT LeftFoot
			{
				OFFSET 2.562200 -7.039590 0.000000 
				CHANNELS 3 Zrotation Yrotation Xrotation
				JOINT LeftToeBase
				{
					OFFSET 0.157640 -0.433110 2.322550 
					CHANNELS 3 Zrotation Yrotation Xrotation
					End Site
					{
						OFFSET 0.000000 0.000000 0.000000 
					}
				}
			}
		}
	}
	JOINT RightUpLeg
	{
		OFFSET -1.305520 -1.794630 0.839290 
		CHANNELS 3 Zrotation Yrotation Xrotation
		JOINT RightLeg
		{
			OFFSET -2.542530 -6.985550 0.000000 
			CHANNELS 3 Zrotation Yrotation Xrotation
			JOINT RightFoot
			{
				OFFSET -2.568260 -7.056230 0.000000 
				CHANNELS 3 Zrotation Yrotation Xrotation
				JOINT RightToeBase
				{
					OFFSET -0.164730 -0.452590 2.363150 
					CHANNELS 3 Zrotation Yrotation Xrotation
					End Site
					{
						OFFSET 0.000000 0.000000 0.000000 
					}
				}
			}
		}
	}
	JOINT Spine
	{
		OFFSET 0.028270 2.035590 -0.193380 
		CHANNELS 3 Zrotation Yrotation Xrotation
		JOINT Spine1
		{
			OFFSET 0.056720 2.048850 -0.042750 
			CHANNELS 3 Zrotation Yrotation Xrotation
			JOINT Neck1
			{
				OFFSET -0.054170 1.746240 0.172020 
				CHANNELS 3 Zrotation Yrotation Xrotation
				JOINT Head
				{
					OFFSET 0.104070 1.761360 -0.123970 
					CHANNELS 3 Zrotation Yrotation Xrotation
					End Site
					{
						OFFSET 0.000000 0.000000 0.000000 
					}
				}
			}
			JOINT LeftArm
			{
				OFFSET 3.362410 1.200890 -0.311210 
				CHANNELS 3 Zrotation Yrotation Xrotation
				JOINT LeftForeArm
				{
					OFFSET 4.983000 -0.000000 -0.000000 
					CHANNELS 3 Zrotation Yrotation Xrotation
					JOINT LeftHand
					{
						OFFSET 3.483560 -0.000000 -0.000000 
						CHANNELS 3 Zrotation Yrotation Xrotation
						JOINT LeftHandIndex1
						{
							OFFSET 0.715260 -0.000000 -0.000000 
							CHANNELS 3 Zrotation Yrotation Xrotation
							End Site
							{
								OFFSET 0.000000 0.000000 0.000000 
							}
						}
					}
				}
			}
			JOINT RightArm
			{
				OFFSET -3.136600 1.374050 -0.404650 
				CHANNELS 3 Zrotation Yrotation Xrotation
				JOINT RightForeArm
				{
					OFFSET -5.241900 -0.000000 -0.000000 
					CHANNELS 3 Zrotation Yrotation Xrotation
					JOINT RightHand
					{
						OFFSET -3.444170 -0.000000 -0.000000 
						CHANNELS 3 Zrotation Yrotation Xrotation
						JOINT RightHandIndex1
						{
							OFFSET -0.622530 -0.000000 -0.000000 
							CHANNELS 3 Zrotation Yrotation Xrotation
							End Site
							{
								OFFSET 0.000000 0.000000 0.000000 
							}
						}
					}
				}
			}
		}
	}
}
MOTION
Frames: 9
Frame Time: 0.041667
9.441511 22.010802 7.218416 -159.762529 6.305754 159.066920 5.672799 17.664014 -2.893430 3.349521 12.792795 33.225314 -4.790168 27.099477 11.256461 4.278500 12.522100 37.604800 -34.405885 -19.731125 -56.143416 -14.157652 -17.578687 72.711366 -0.170988 -10.869159 -26.762002 -0.066100 1.658500 -4.562800 6.452711 -13.465909 -2.895854 2.310038 -6.143165 5.365300 1.279937 -14.196142 13.074899 -0.131500 -6.898600 2.278500 27.004340 -59.974225 -50.752298 15.803414 -26.411406 -4.134634 -0.017833 0.122393 -10.159818 -7.125000 0.000000 0.000000 -29.039276 3.707257 -42.175736 -24.766733 35.143085 -11.147982 0.094522 4.259350 -16.870098 7.125000 0.000000 0.000000 
9.371403 22.210494 7.416704 -160.061845 9.840793 158.673549 6.488297 20.076327 -5.303748 4.231678 13.762077 37.035000 -4.882802 25.868889 8.502884 5.318900 13.734200 42.183100 -33.295197 -19.810071 -56.695017 -13.947205 -17.554187 72.107301 0.243670 -12.959439 -26.688839 -0.351700 3.810400 -10.543700 6.663218 -13.602946 -2.644211 2.909322 -6.122142 5.467416 1.119445 -13.724343 14.581519 0.001200 -6.674300 2.794800 26.513877 -58.907001 -52.279942 14.211553 -24.412713 -3.494627 -0.100097 0.175812 -9.352259 -7.125000 0.000000 0.000000 -29.371258 6.600973 -44.111485 -24.845842 35.494603 -11.179346 0.243995 4.147358 -17.136377 7.125000 0.000000 0.000000 
9.296782 22.402965 7.623016 -160.152957 13.512596 158.269362 7.600839 21.410674 -7.228202 4.841500 14.245095 39.255511 -4.708608 24.763999 7.850862 3.451100 11.391800 33.612800 -32.206118 -19.395229 -56.377157 -13.780140 -17.507754 71.580971 -0.024264 -11.588795 -26.670074 -0.140500 2.415700 -6.656000 6.924520 -13.775812 -2.390068 3.679918 -6.128471 5.394779 0.158682 -13.029196 16.157562 -0.110300 -6.370400 3.302800 24.742275 -57.552865 -52.495714 12.825735 -22.577574 -2.996347 -0.169503 0.245992 -7.952775 -7.125000 0.000000 0.000000 -29.863955 9.860414 -45.875942 -24.795161 35.777100 -11.112436 0.372892 4.053645 -17.498569 7.125000 0.000000 0.000000 
9.217647 22.586008 7.835948 -160.601391 16.990412 158.009171 8.122426 22.086163 -9.200481 5.174352 14.583106 40.999211 -4.942607 23.268552 2.951229 4.435500 12.718400 38.323500 -31.495070 -19.011621 -55.919571 -13.581186 -17.437185 70.926972 -0.296928 -9.974402 -26.386778 -0.076800 1.787600 -4.919100 7.009048 -13.619922 -2.110433 4.204610 -6.020189 5.431889 -1.101606 -12.736666 17.337217 -0.450000 -6.253300 3.521800 23.911103 -56.647217 -53.274537 11.775478 -21.175799 -2.640208 -0.218710 0.292899 -6.381955 -7.125000 0.000000 0.000000 -29.797289 12.522730 -46.935322 -24.729368 35.877148 -11.035098 0.470841 4.022582 -18.217664 7.125000 0.000000 0.000000 
9.139315 22.763836 8.057004 -161.119320 20.500146 157.788461 8.577404 22.319430 -11.176495 5.292778 14.656972 41.675145 -5.209179 22.876848 -0.757982 4.173900 12.388300 37.120000 -30.444696 -18.557379 -55.549167 -13.352343 -17.400526 70.229088 -0.272675 -9.841516 -25.999000 -0.119200 2.225400 -6.129100 7.003039 -13.305028 -1.762156 4.557869 -5.841902 5.596308 -2.279295 -12.307345 19.000867 -0.881600 -6.056500 3.998900 23.439770 -55.722001 -54.077184 10.958403 -20.071109 -2.375768 -0.259711 0.328046 -4.572042 -7.125000 0.000000 0.000000 -29.497732 15.175833 -48.081655 -24.458437 35.750324 -10.835544 0.525809 4.037620 -19.082999 7.125000 0.000000 0.000000 
9.067602 22.934342 8.281670 -161.357000 24.067000 157.524288 9.510703 22.105011 -12.976581 5.369712 14.624958 42.136573 -4.931400 20.928141 -3.760987 4.872100 13.238300 40.267200 -28.872314 -18.017604 -54.863391 -13.058573 -17.387172 69.380711 -0.012300 -10.938327 -25.571370 -0.300600 3.525000 -9.744100 6.942975 -12.932551 -1.326675 4.711890 -5.606761 5.839274 -3.051454 -11.695352 20.730630 -1.185200 -5.761100 4.578200 23.026550 -54.653595 -54.308415 10.312173 -19.166654 -2.171501 -0.303489 0.357487 -2.973055 -7.125000 0.000000 0.000000 -28.967177 18.016202 -49.282988 -23.979708 35.414999 -10.516365 0.526792 4.047874 -19.868855 7.125000 0.000000 0.000000 
9.001405 23.091809 8.507741 -161.139691 27.595232 157.406553 11.084281 21.518951 -14.701790 5.450494 14.478005 42.205278 -4.971456 20.607620 -5.401869 4.106000 12.300100 36.801900 -26.935305 -17.407541 -53.690465 -12.771619 -17.397295 68.556211 -0.024232 -11.016242 -25.785872 -0.244400 3.181500 -8.784400 6.603961 -11.855347 -0.570982 3.520802 -4.895386 6.674792 -3.489034 -11.807930 22.839445 -1.536900 -5.783200 4.833000 26.340520 -54.693582 -57.097599 9.929086 -18.749044 -2.003478 -0.337920 0.326236 -2.228527 -7.125000 0.000000 0.000000 -27.296928 19.028191 -49.961662 -23.343041 34.624224 -10.134032 0.532190 4.138342 -20.820026 7.125000 0.000000 0.000000 
8.934005 23.235936 8.740331 -161.094689 30.868542 157.286024 12.579871 20.419130 -16.440721 5.418146 14.173339 41.718228 -4.578412 18.899074 -5.477202 3.961600 12.109100 36.119200 -25.187120 -17.048586 -52.454350 -12.558283 -17.398985 67.942508 -0.176608 -10.678347 -26.472154 -0.118000 2.214400 -6.098500 6.487084 -11.339346 -0.160368 3.378159 -4.553582 6.802742 -3.637233 -11.275827 23.945410 -1.507500 -5.521400 5.108100 25.833349 -53.685005 -56.187432 9.710258 -18.412698 -1.942461 -0.371334 0.349314 -1.563235 -7.125000 0.000000 0.000000 -26.555151 21.277751 -49.996194 -22.520357 33.914802 -9.602685 0.513203 4.191400 -22.213119 7.125000 0.000000 0.000000 
8.868010 23.367928 8.976231 -161.643706 33.789867 156.913411 13.678736 18.814222 -18.015788 5.209323 13.767508 40.793132 -3.758428 15.661161 -6.251132 5.179800 13.583500 41.594000 -23.861472 -17.211464 -51.412822 -12.417820 -17.408035 67.574431 -0.038121 -11.763282 -27.018656 -0.191300 2.816800 -7.769200 6.262739 -10.888723 0.203505 3.316317 -4.307778 6.952931 -4.136245 -10.643386 25.503576 -1.666600 -5.224500 5.610000 25.586050 -52.558032 -56.011789 9.655059 -18.314182 -1.925887 -0.401578 0.354664 -2.020434 -7.125000 0.000000 0.000000 -25.842575 23.600190 -49.968948 -21.519494 33.010105 -8.964622 0.499514 4.254711 -23.709653 7.125000 0.000000 0.000000 
